# xmcd
#
# Track frame offsets:
#	150
#	4662
#	41640
#	90587
#	116686
#
# Disc length: 2673 seconds
#
# Revision: 1219173467
# Processed by: cddbd v1.5.2PL0 Copyright (c) Steve Scherf et al.
# Submitted via: EZCDAudioConverter 8.0.2.1
#
DISCID=330a6f05
DTITLE=Hài Vân Sơn - Live Show 05
DYEAR=2002
DGENRE=Contemporary Pop
TTITLE0=MC Việt Thảo - Introduction
TTITLE1=Vân Sơn, Hoài Linh, Mỹ Linh, Út mập and Bé Mập - Lạy anh em đi lấy chồng
TTITLE2=Vân Sơn , Hoài Linh - Những chuyện đau lòng
TTITLE3=Hoài Linh - Tình bạn
TTITLE4=Quang Minh, Hồng Đào - Gỡ rối tơ lòng
EXTD=
EXTT0=
EXTT1=
EXTT2=
EXTT3=
EXTT4=
PLAYORDER=
